<svg width="64" height="64" viewBox="0 0 64 64" fill="none" xmlns="http://www.w3.org/2000/svg">
  <rect width="64" height="64" rx="18" fill="#07111D"/>
  <rect x="8.5" y="8.5" width="47" height="47" rx="14.5" stroke="#C8FF24"/>
  <path d="M38.9 42.4C36.8 44.1 34.2 45 31.2 45C23.7 45 18 39.5 18 32C18 24.5 23.7 19 31.2 19C38.8 19 44.5 24.5 44.5 32C44.5 35 43.6 37.6 41.9 39.7L46 44H39.8L38.9 42.4ZM31.2 38.7C33.9 38.7 36 37.7 37.2 35.8L34.1 32.5H40.2C40.2 32.3 40.2 32.1 40.2 32C40.2 27.7 36.5 25.3 31.2 25.3C25.9 25.3 22.3 27.7 22.3 32C22.3 36.3 25.9 38.7 31.2 38.7Z" fill="#F4F6F8"/>
</svg>
